<?xml version="1.0" standalone="no"?>
<!DOCTYPE svg PUBLIC "-//W3C//DTD SVG 20010904//EN"
 "http://www.w3.org/TR/2001/REC-SVG-20010904/DTD/svg10.dtd">
<svg version="1.0" xmlns="http://www.w3.org/2000/svg"
 width="1024.000000pt" height="1024.000000pt" viewBox="0 0 1024.000000 1024.000000"
 preserveAspectRatio="xMidYMid meet">

<g transform="translate(0.000000,1024.000000) scale(0.100000,-0.100000)"
fill="#000000" stroke="none">
<path d="M2744 6418 c63 -128 168 -346 234 -485 67 -138 228 -469 358 -735
130 -265 258 -528 284 -583 58 -123 210 -433 447 -915 151 -307 186 -371 221
-402 54 -49 110 -64 180 -48 94 21 110 42 265 360 166 340 234 481 337 698 43
90 81 164 86 165 4 1 63 -115 130 -258 367 -775 428 -898 463 -928 48 -40 103
-53 159 -38 97 25 97 25 349 531 241 483 962 1951 1078 2195 130 271 315 666
315 671 0 2 -114 4 -253 4 l-253 0 -134 -282 c-115 -243 -258 -541 -693 -1440
-44 -93 -83 -168 -87 -168 -3 0 -78 145 -165 323 -264 537 -617 1263 -691
1420 l-69 148 -250 -4 c-270 -4 -286 -7 -402 -66 -166 -83 -291 -251 -334
-451 -6 -25 -14 -175 -18 -335 -7 -254 -10 -297 -28 -345 -26 -70 -243 -562
-253 -574 -9 -9 -67 107 -584 1179 -46 94 -129 266 -186 383 l-103 212 -258 0
-257 0 112 -232z m2266 -213 c21 -11 40 -38 70 -100 22 -47 40 -87 40 -89 0
-5 167 -367 240 -521 29 -60 65 -137 80 -170 32 -70 221 -463 345 -720 144
-298 175 -365 175 -388 0 -23 -79 -197 -89 -197 -3 0 -51 92 -105 203 -516
1049 -514 1046 -582 1063 -38 10 -90 -4 -124 -33 -37 -30 -153 -266 -510
-1030 l-103 -221 -64 131 c-35 72 -74 159 -86 193 l-21 62 24 59 c13 32 97
219 187 415 189 414 195 429 230 557 23 88 26 119 32 366 7 284 7 284 58 352
27 35 113 83 150 83 13 0 37 -7 53 -15z"/>
</g>
</svg>
