<?xml version="1.0" standalone="no"?>
<!DOCTYPE svg PUBLIC "-//W3C//DTD SVG 20010904//EN"
 "http://www.w3.org/TR/2001/REC-SVG-20010904/DTD/svg10.dtd">
<svg version="1.0" xmlns="http://www.w3.org/2000/svg"
 width="64.000000pt" height="64.000000pt" viewBox="0 0 64.000000 64.000000"
 preserveAspectRatio="xMidYMid meet">
<metadata>
Created by potrace 1.10, written by Peter Selinger 2001-2011
</metadata>
<g transform="translate(0.000000,64.000000) scale(0.100000,-0.100000)"
fill="#77b138" stroke="none">
<path d="M77 523 c-4 -3 -7 -14 -7 -24 0 -20 1 -20 120 -39 145 -24 280 -86
353 -162 39 -42 50 -48 62 -38 8 7 15 17 15 22 0 22 -50 73 -112 114 -88 59
-163 88 -286 114 -107 21 -135 24 -145 13z"/>
<path d="M83 390 c-24 -10 -31 -46 -11 -52 7 -3 25 0 39 5 76 29 331 -84 360
-160 10 -27 21 -29 40 -7 11 13 10 21 -5 49 -22 40 -66 72 -156 114 -113 52
-215 72 -267 51z"/>
<path d="M76 261 c-13 -21 15 -41 57 -41 65 0 147 -31 191 -72 43 -41 61 -47
70 -22 10 26 -61 88 -129 114 -71 26 -179 38 -189 21z"/>
</g>
</svg>
